<svg width="176" height="54" viewBox="0 0 176 54" fill="none" xmlns="http://www.w3.org/2000/svg">
<circle cx="160" cy="16" r="16" fill="#9F46FF"/>
<circle cx="144" cy="14" r="8" fill="white"/>
<circle cx="136.5" cy="28.5" r="12.5" fill="#F1AA0A"/>
<path d="M21.356 50.56L17.936 45.962C16.9227 46.1647 15.9347 46.266 14.972 46.266C12.464 46.266 10.1587 45.6833 8.056 44.518C5.97867 43.3527 4.31933 41.7313 3.078 39.654C1.862 37.5513 1.254 35.1953 1.254 32.586C1.254 29.9767 1.862 27.6333 3.078 25.556C4.31933 23.4787 5.97867 21.8573 8.056 20.692C10.1587 19.5267 12.464 18.944 14.972 18.944C17.48 18.944 19.7727 19.5267 21.85 20.692C23.9527 21.8573 25.5993 23.4787 26.79 25.556C28.006 27.6333 28.614 29.9767 28.614 32.586C28.614 34.866 28.1453 36.956 27.208 38.856C26.296 40.7307 25.0167 42.2887 23.37 43.53L29.222 50.56H21.356ZM7.904 32.586C7.904 34.942 8.53733 36.8293 9.804 38.248C11.096 39.6413 12.8187 40.338 14.972 40.338C17.1 40.338 18.7973 39.6287 20.064 38.21C21.356 36.7913 22.002 34.9167 22.002 32.586C22.002 30.23 21.356 28.3553 20.064 26.962C18.7973 25.5433 17.1 24.834 14.972 24.834C12.8187 24.834 11.096 25.5307 9.804 26.924C8.53733 28.3173 7.904 30.2047 7.904 32.586ZM50.5813 24.796V46H44.0833V43.112C43.4246 44.0493 42.5253 44.8093 41.3853 45.392C40.2706 45.9493 39.0293 46.228 37.6613 46.228C36.0399 46.228 34.6086 45.8733 33.3673 45.164C32.1259 44.4293 31.1633 43.378 30.4793 42.01C29.7953 40.642 29.4533 39.0333 29.4533 37.184V24.796H35.9133V36.31C35.9133 37.7287 36.2806 38.8307 37.0153 39.616C37.7499 40.4013 38.7379 40.794 39.9793 40.794C41.2459 40.794 42.2466 40.4013 42.9813 39.616C43.7159 38.8307 44.0833 37.7287 44.0833 36.31V24.796H50.5813ZM62.2407 46.304C60.1634 46.304 58.2887 45.8607 56.6167 44.974C54.9701 44.0873 53.6654 42.8207 52.7027 41.174C51.7654 39.5273 51.2967 37.602 51.2967 35.398C51.2967 33.2193 51.7781 31.3067 52.7407 29.66C53.7034 27.988 55.0207 26.7087 56.6927 25.822C58.3647 24.9353 60.2394 24.492 62.3167 24.492C64.3941 24.492 66.2687 24.9353 67.9407 25.822C69.6127 26.7087 70.9301 27.988 71.8927 29.66C72.8554 31.3067 73.3367 33.2193 73.3367 35.398C73.3367 37.5767 72.8427 39.502 71.8547 41.174C70.8921 42.8207 69.5621 44.0873 67.8647 44.974C66.1927 45.8607 64.3181 46.304 62.2407 46.304ZM62.2407 40.68C63.4821 40.68 64.5334 40.224 65.3947 39.312C66.2814 38.4 66.7247 37.0953 66.7247 35.398C66.7247 33.7007 66.2941 32.396 65.4327 31.484C64.5967 30.572 63.5581 30.116 62.3167 30.116C61.0501 30.116 59.9987 30.572 59.1627 31.484C58.3267 32.3707 57.9087 33.6753 57.9087 35.398C57.9087 37.0953 58.3141 38.4 59.1247 39.312C59.9607 40.224 60.9994 40.68 62.2407 40.68ZM85.942 40.49V46H82.636C80.28 46 78.4434 45.43 77.126 44.29C75.8087 43.1247 75.15 41.2373 75.15 38.628V30.192H72.566V24.796H75.15V19.628H81.648V24.796H85.904V30.192H81.648V38.704C81.648 39.3373 81.8 39.7933 82.104 40.072C82.408 40.3507 82.9147 40.49 83.624 40.49H85.942ZM90.1695 22.592C89.0295 22.592 88.0922 22.2627 87.3575 21.604C86.6482 20.92 86.2935 20.084 86.2935 19.096C86.2935 18.0827 86.6482 17.2467 87.3575 16.588C88.0922 15.904 89.0295 15.562 90.1695 15.562C91.2842 15.562 92.1962 15.904 92.9055 16.588C93.6402 17.2467 94.0075 18.0827 94.0075 19.096C94.0075 20.084 93.6402 20.92 92.9055 21.604C92.1962 22.2627 91.2842 22.592 90.1695 22.592ZM93.3995 24.796V46H86.9015V24.796H93.3995ZM104.075 46.304C102.225 46.304 100.579 45.9873 99.1346 45.354C97.6906 44.7207 96.5506 43.8593 95.7146 42.77C94.8786 41.6553 94.4099 40.414 94.3086 39.046H100.731C100.807 39.7807 101.149 40.376 101.757 40.832C102.365 41.288 103.112 41.516 103.999 41.516C104.809 41.516 105.43 41.364 105.861 41.06C106.317 40.7307 106.545 40.3127 106.545 39.806C106.545 39.198 106.228 38.7547 105.595 38.476C104.961 38.172 103.935 37.8427 102.517 37.488C100.997 37.1333 99.7299 36.766 98.7166 36.386C97.7032 35.9807 96.8292 35.36 96.0946 34.524C95.3599 33.6627 94.9926 32.51 94.9926 31.066C94.9926 29.85 95.3219 28.748 95.9806 27.76C96.6646 26.7467 97.6526 25.9487 98.9446 25.366C100.262 24.7833 101.82 24.492 103.619 24.492C106.279 24.492 108.369 25.1507 109.889 26.468C111.434 27.7853 112.321 29.5333 112.549 31.712H106.545C106.443 30.9773 106.114 30.3947 105.557 29.964C105.025 29.5333 104.315 29.318 103.429 29.318C102.669 29.318 102.086 29.47 101.681 29.774C101.275 30.0527 101.073 30.4453 101.073 30.952C101.073 31.56 101.389 32.016 102.023 32.32C102.681 32.624 103.695 32.928 105.063 33.232C106.633 33.6373 107.913 34.0427 108.901 34.448C109.889 34.828 110.75 35.4613 111.485 36.348C112.245 37.2093 112.637 38.3747 112.663 39.844C112.663 41.0853 112.308 42.2 111.599 43.188C110.915 44.1507 109.914 44.9107 108.597 45.468C107.305 46.0253 105.797 46.304 104.075 46.304ZM141.034 24.568C143.669 24.568 145.759 25.366 147.304 26.962C148.875 28.558 149.66 30.7747 149.66 33.612V46H143.2V34.486C143.2 33.118 142.833 32.0667 142.098 31.332C141.389 30.572 140.401 30.192 139.134 30.192C137.867 30.192 136.867 30.572 136.132 31.332C135.423 32.0667 135.068 33.118 135.068 34.486V46H128.608V34.486C128.608 33.118 128.241 32.0667 127.506 31.332C126.797 30.572 125.809 30.192 124.542 30.192C123.275 30.192 122.275 30.572 121.54 31.332C120.831 32.0667 120.476 33.118 120.476 34.486V46H113.978V24.796H120.476V27.456C121.135 26.5693 121.996 25.8727 123.06 25.366C124.124 24.834 125.327 24.568 126.67 24.568C128.266 24.568 129.685 24.91 130.926 25.594C132.193 26.278 133.181 27.2533 133.89 28.52C134.625 27.3547 135.625 26.4047 136.892 25.67C138.159 24.9353 139.539 24.568 141.034 24.568Z" fill="white"/>
</svg>
