<svg width="16" height="10" viewBox="0 0 16 10" fill="none" xmlns="http://www.w3.org/2000/svg">
<path d="M12.4893 0.392578L13.2871 2.82324C12.8542 2.89746 12.4893 2.99023 12.1924 3.10156C11.8955 3.21289 11.6481 3.33659 11.4502 3.47266C11.2646 3.59635 11.1162 3.72005 11.0049 3.84375C10.9059 3.96745 10.8317 4.07259 10.7822 4.15918C10.9554 4.12207 11.1348 4.09115 11.3203 4.06641C11.5059 4.0293 11.6914 4.01074 11.877 4.01074C12.347 4.01074 12.7861 4.08496 13.1943 4.2334C13.6025 4.38184 13.9551 4.57975 14.252 4.82715C14.5488 5.07454 14.7839 5.37142 14.957 5.71777C15.1302 6.05176 15.2168 6.4043 15.2168 6.77539C15.2168 7.15885 15.1302 7.52376 14.957 7.87012C14.7839 8.2041 14.5488 8.50098 14.252 8.76074C13.9551 9.02051 13.6025 9.22461 13.1943 9.37305C12.7861 9.52148 12.347 9.5957 11.877 9.5957C11.2585 9.5957 10.708 9.47201 10.2256 9.22461C9.75553 8.97721 9.35352 8.64941 9.01953 8.24121C8.69792 7.83301 8.45052 7.36914 8.27734 6.84961C8.11654 6.31771 8.03613 5.77344 8.03613 5.2168C8.03613 4.5612 8.15983 3.97363 8.40723 3.4541C8.66699 2.93457 9.00098 2.47689 9.40918 2.08105C9.82975 1.67285 10.306 1.33268 10.8379 1.06055C11.3822 0.776042 11.9326 0.553385 12.4893 0.392578ZM4.58496 0.392578L5.38281 2.82324C4.94987 2.89746 4.58496 2.99023 4.28809 3.10156C3.99121 3.21289 3.74382 3.33659 3.5459 3.47266C3.36035 3.59635 3.21191 3.72005 3.10059 3.84375C3.00163 3.96745 2.92741 4.07259 2.87793 4.15918C3.05111 4.12207 3.23047 4.09115 3.41602 4.06641C3.60156 4.0293 3.78711 4.01074 3.97266 4.01074C4.44271 4.01074 4.88184 4.08496 5.29004 4.2334C5.69824 4.38184 6.05078 4.57975 6.34766 4.82715C6.6569 5.07454 6.89811 5.37142 7.07129 5.71777C7.24447 6.05176 7.33105 6.4043 7.33105 6.77539C7.33105 7.15885 7.24447 7.52376 7.07129 7.87012C6.89811 8.2041 6.6569 8.50098 6.34766 8.76074C6.05078 9.02051 5.69824 9.22461 5.29004 9.37305C4.88184 9.52148 4.44271 9.5957 3.97266 9.5957C3.35417 9.5957 2.80371 9.47201 2.32129 9.22461C1.85124 8.97721 1.44922 8.64941 1.11523 8.24121C0.79362 7.83301 0.546224 7.36914 0.373047 6.84961C0.21224 6.31771 0.131836 5.77344 0.131836 5.2168C0.131836 4.5612 0.255534 3.97363 0.50293 3.4541C0.762695 2.93457 1.09668 2.47689 1.50488 2.08105C1.92546 1.67285 2.40169 1.33268 2.93359 1.06055C3.47786 0.776042 4.02832 0.553385 4.58496 0.392578Z" fill="black"/>
</svg>
